<svg width="16" height="16" viewBox="0 0 16 16" fill="none" xmlns="http://www.w3.org/2000/svg">
<path d="M5.33412 8C5.33412 6.5273 6.52766 5.33312 8.00036 5.33312C9.47307 5.33312 10.6672 6.5273 10.6672 8C10.6672 9.4727 9.47307 10.6669 8.00036 10.6669C6.52766 10.6669 5.33412 9.4727 5.33412 8ZM3.89246 8C3.89246 10.2688 5.73156 12.1079 8.00036 12.1079C10.2692 12.1079 12.1083 10.2688 12.1083 8C12.1083 5.7312 10.2692 3.8921 8.00036 3.8921C5.73156 3.8921 3.89246 5.7312 3.89246 8ZM11.3109 3.72922C11.3108 3.91909 11.367 4.10471 11.4725 4.26263C11.5779 4.42054 11.7278 4.54365 11.9032 4.61638C12.0785 4.68911 12.2716 4.7082 12.4578 4.67123C12.644 4.63426 12.8151 4.5429 12.9494 4.40869C13.0838 4.27449 13.1753 4.10347 13.2124 3.91726C13.2495 3.73106 13.2306 3.53802 13.158 3.36258C13.0854 3.18713 12.9624 3.03715 12.8046 2.9316C12.6467 2.82605 12.4611 2.76968 12.2713 2.7696C12.0168 2.76972 11.7723 2.87085 11.5923 3.05077C11.4123 3.2307 11.3111 3.47471 11.3109 3.72922ZM4.76836 14.5118C3.9884 14.4763 3.56446 14.3464 3.28273 14.2366C2.90923 14.0912 2.64273 13.918 2.36254 13.6382C2.08235 13.3584 1.90891 13.0922 1.76414 12.7187C1.65432 12.4371 1.5244 12.013 1.48894 11.233C1.45016 10.3898 1.44241 10.1364 1.44241 8.00006C1.44241 5.86368 1.4508 5.61107 1.48894 4.7671C1.52446 3.98714 1.65534 3.5639 1.76414 3.28147C1.90955 2.90797 2.08273 2.64147 2.36254 2.36128C2.64235 2.08109 2.90859 1.90765 3.28273 1.76288C3.56433 1.65306 3.9884 1.52314 4.76836 1.48768C5.61163 1.4489 5.86494 1.44115 8.00036 1.44115C10.1358 1.44115 10.3894 1.44954 11.2333 1.48768C12.0133 1.5232 12.4365 1.65408 12.719 1.76288C13.0925 1.90765 13.359 2.08147 13.6391 2.36128C13.9193 2.64109 14.0921 2.90797 14.2375 3.28147C14.3474 3.56307 14.4773 3.98714 14.5127 4.7671C14.5515 5.61107 14.5593 5.86368 14.5593 8.00006C14.5593 10.1364 14.5515 10.3891 14.5127 11.233C14.4772 12.013 14.3467 12.4369 14.2375 12.7187C14.0921 13.0922 13.919 13.3587 13.6391 13.6382C13.3593 13.9178 13.0925 14.0912 12.719 14.2366C12.4374 14.3464 12.0133 14.4764 11.2333 14.5118C10.3901 14.5506 10.1367 14.5583 8.00036 14.5583C5.86398 14.5583 5.61137 14.5506 4.76836 14.5118ZM4.70213 0.048448C3.85048 0.087232 3.26853 0.222272 2.7603 0.420032C2.23397 0.624256 1.7884 0.89824 1.34315 1.34278C0.897902 1.78733 0.624622 2.2336 0.420398 2.75994C0.222638 3.26848 0.0875982 3.85011 0.0488142 4.70176C0.00939021 5.55475 0.000366211 5.82746 0.000366211 8C0.000366211 10.1725 0.00939021 10.4452 0.0488142 11.2982C0.0875982 12.15 0.222638 12.7315 0.420398 13.2401C0.624622 13.7661 0.897966 14.2129 1.34315 14.6572C1.78833 15.1016 2.23397 15.3752 2.7603 15.58C3.26949 15.7777 3.85048 15.9128 4.70213 15.9516C5.55556 15.9903 5.82782 16 8.00036 16C10.1729 16 10.4456 15.991 11.2986 15.9516C12.1503 15.9128 12.7319 15.7777 13.2404 15.58C13.7664 15.3752 14.2123 15.1018 14.6576 14.6572C15.1028 14.2127 15.3755 13.7661 15.5803 13.2401C15.7781 12.7315 15.9138 12.1499 15.9519 11.2982C15.9907 10.4446 15.9997 10.1725 15.9997 8C15.9997 5.82746 15.9907 5.55475 15.9519 4.70176C15.9131 3.85005 15.7781 3.26816 15.5803 2.75994C15.3755 2.23392 15.1021 1.78803 14.6576 1.34278C14.213 0.897536 13.7664 0.624256 13.2411 0.420032C12.7319 0.222272 12.1502 0.086592 11.2992 0.048448C10.4463 0.009664 10.1735 0 8.001 0C5.82846 0 5.55556 0.009024 4.70213 0.048448Z" fill="#FFF" />
<path d="M5.33412 8C5.33412 6.5273 6.52766 5.33312 8.00036 5.33312C9.47307 5.33312 10.6672 6.5273 10.6672 8C10.6672 9.4727 9.47307 10.6669 8.00036 10.6669C6.52766 10.6669 5.33412 9.4727 5.33412 8ZM3.89246 8C3.89246 10.2688 5.73156 12.1079 8.00036 12.1079C10.2692 12.1079 12.1083 10.2688 12.1083 8C12.1083 5.7312 10.2692 3.8921 8.00036 3.8921C5.73156 3.8921 3.89246 5.7312 3.89246 8ZM11.3109 3.72922C11.3108 3.91909 11.367 4.10471 11.4725 4.26263C11.5779 4.42054 11.7278 4.54365 11.9032 4.61638C12.0785 4.68911 12.2716 4.7082 12.4578 4.67123C12.644 4.63426 12.8151 4.5429 12.9494 4.40869C13.0838 4.27449 13.1753 4.10347 13.2124 3.91726C13.2495 3.73106 13.2306 3.53802 13.158 3.36258C13.0854 3.18713 12.9624 3.03715 12.8046 2.9316C12.6467 2.82605 12.4611 2.76968 12.2713 2.7696C12.0168 2.76972 11.7723 2.87085 11.5923 3.05077C11.4123 3.2307 11.3111 3.47471 11.3109 3.72922ZM4.76836 14.5118C3.9884 14.4763 3.56446 14.3464 3.28273 14.2366C2.90923 14.0912 2.64273 13.918 2.36254 13.6382C2.08235 13.3584 1.90891 13.0922 1.76414 12.7187C1.65432 12.4371 1.5244 12.013 1.48894 11.233C1.45016 10.3898 1.44241 10.1364 1.44241 8.00006C1.44241 5.86368 1.4508 5.61107 1.48894 4.7671C1.52446 3.98714 1.65534 3.5639 1.76414 3.28147C1.90955 2.90797 2.08273 2.64147 2.36254 2.36128C2.64235 2.08109 2.90859 1.90765 3.28273 1.76288C3.56433 1.65306 3.9884 1.52314 4.76836 1.48768C5.61163 1.4489 5.86494 1.44115 8.00036 1.44115C10.1358 1.44115 10.3894 1.44954 11.2333 1.48768C12.0133 1.5232 12.4365 1.65408 12.719 1.76288C13.0925 1.90765 13.359 2.08147 13.6391 2.36128C13.9193 2.64109 14.0921 2.90797 14.2375 3.28147C14.3474 3.56307 14.4773 3.98714 14.5127 4.7671C14.5515 5.61107 14.5593 5.86368 14.5593 8.00006C14.5593 10.1364 14.5515 10.3891 14.5127 11.233C14.4772 12.013 14.3467 12.4369 14.2375 12.7187C14.0921 13.0922 13.919 13.3587 13.6391 13.6382C13.3593 13.9178 13.0925 14.0912 12.719 14.2366C12.4374 14.3464 12.0133 14.4764 11.2333 14.5118C10.3901 14.5506 10.1367 14.5583 8.00036 14.5583C5.86398 14.5583 5.61137 14.5506 4.76836 14.5118ZM4.70213 0.048448C3.85048 0.087232 3.26853 0.222272 2.7603 0.420032C2.23397 0.624256 1.7884 0.89824 1.34315 1.34278C0.897902 1.78733 0.624622 2.2336 0.420398 2.75994C0.222638 3.26848 0.0875982 3.85011 0.0488142 4.70176C0.00939021 5.55475 0.000366211 5.82746 0.000366211 8C0.000366211 10.1725 0.00939021 10.4452 0.0488142 11.2982C0.0875982 12.15 0.222638 12.7315 0.420398 13.2401C0.624622 13.7661 0.897966 14.2129 1.34315 14.6572C1.78833 15.1016 2.23397 15.3752 2.7603 15.58C3.26949 15.7777 3.85048 15.9128 4.70213 15.9516C5.55556 15.9903 5.82782 16 8.00036 16C10.1729 16 10.4456 15.991 11.2986 15.9516C12.1503 15.9128 12.7319 15.7777 13.2404 15.58C13.7664 15.3752 14.2123 15.1018 14.6576 14.6572C15.1028 14.2127 15.3755 13.7661 15.5803 13.2401C15.7781 12.7315 15.9138 12.1499 15.9519 11.2982C15.9907 10.4446 15.9997 10.1725 15.9997 8C15.9997 5.82746 15.9907 5.55475 15.9519 4.70176C15.9131 3.85005 15.7781 3.26816 15.5803 2.75994C15.3755 2.23392 15.1021 1.78803 14.6576 1.34278C14.213 0.897536 13.7664 0.624256 13.2411 0.420032C12.7319 0.222272 12.1502 0.086592 11.2992 0.048448C10.4463 0.009664 10.1735 0 8.001 0C5.82846 0 5.55556 0.009024 4.70213 0.048448Z" fill="#FFF" />
</svg>
