<svg width="24" height="24" viewBox="0 0 14 14" fill="none" xmlns="http://www.w3.org/2000/svg">
<path d="M7.39765 11.4642L7.15738 11.0257L7.39765 11.4642ZM6.60227 11.4642L6.36201 11.9027L6.60227 11.4642ZM10.5833 6.41683C10.5833 7.62662 10.0024 8.63154 9.26058 9.42318C8.51798 10.2156 7.64718 10.7573 7.15738 11.0257L7.63791 11.9027C8.17466 11.6086 9.14669 11.0072 9.99027 10.107C10.8346 9.20587 11.5833 7.96836 11.5833 6.41683H10.5833ZM6.99996 2.8335C8.97898 2.8335 10.5833 4.43781 10.5833 6.41683H11.5833C11.5833 3.88552 9.53126 1.8335 6.99996 1.8335V2.8335ZM3.41663 6.41683C3.41663 4.43781 5.02094 2.8335 6.99996 2.8335V1.8335C4.46865 1.8335 2.41663 3.88552 2.41663 6.41683H3.41663ZM6.84254 11.0257C6.35274 10.7573 5.48194 10.2156 4.73934 9.42318C3.99752 8.63154 3.41663 7.62662 3.41663 6.41683H2.41663C2.41663 7.96836 3.16528 9.20587 4.00964 10.107C4.85323 11.0072 5.82526 11.6086 6.36201 11.9027L6.84254 11.0257ZM7.15738 11.0257C7.05725 11.0805 6.94267 11.0805 6.84254 11.0257L6.36201 11.9027C6.76149 12.1216 7.23843 12.1216 7.63791 11.9027L7.15738 11.0257ZM8.24996 6.41683C8.24996 7.10719 7.69032 7.66683 6.99996 7.66683V8.66683C8.2426 8.66683 9.24996 7.65947 9.24996 6.41683H8.24996ZM6.99996 5.16683C7.69032 5.16683 8.24996 5.72647 8.24996 6.41683H9.24996C9.24996 5.17419 8.2426 4.16683 6.99996 4.16683V5.16683ZM5.74996 6.41683C5.74996 5.72647 6.3096 5.16683 6.99996 5.16683V4.16683C5.75732 4.16683 4.74996 5.17419 4.74996 6.41683H5.74996ZM6.99996 7.66683C6.3096 7.66683 5.74996 7.10719 5.74996 6.41683H4.74996C4.74996 7.65947 5.75732 8.66683 6.99996 8.66683V7.66683Z" fill="#FFF"/>
</svg>
