<svg width="232" height="227" viewBox="0 0 232 227" fill="none" xmlns="http://www.w3.org/2000/svg">
<circle cx="222.691" cy="35.0865" r="9.30864" fill="black" fill-opacity="0.8"/>
<circle cx="25.7776" cy="12.8889" r="12.8889" fill="black" fill-opacity="0.8"/>
<circle cx="12.173" cy="168.272" r="6.44444" fill="black" fill-opacity="0.8"/>
<circle cx="207.655" cy="201.926" r="2.8642" fill="black" fill-opacity="0.8"/>
<circle cx="133.185" cy="5.72833" r="2.8642" fill="black" fill-opacity="0.8"/>
<circle cx="77.3334" cy="221.975" r="4.2963" fill="black" fill-opacity="0.8"/>
<circle cx="153.235" cy="216.247" r="1.4321" fill="black" fill-opacity="0.8"/>
<circle cx="213.382" cy="138.914" r="2.8642" fill="black" fill-opacity="0.8"/>
<circle cx="1.4321" cy="94.5185" r="1.4321" fill="black" fill-opacity="0.8"/>
<path d="M116 181C131.501 181 146.522 175.625 158.504 165.792C170.487 155.958 178.688 142.274 181.713 127.071C184.737 111.868 182.396 96.0869 175.089 82.4164C167.782 68.746 155.961 58.032 141.64 52.1001C127.319 46.1682 111.384 45.3854 96.551 49.885C81.7176 54.3847 68.9034 63.8884 60.2916 76.7768C51.6799 89.6652 47.8034 105.141 49.3227 120.567C50.8421 135.993 57.6632 150.415 68.6239 161.376M145.778 99.1111L110.271 141.719C109.469 142.682 109.068 143.163 108.529 143.187C107.99 143.212 107.547 142.769 106.66 141.883L86.2223 121.444" stroke="#33363F" stroke-width="10" stroke-linecap="round"/>
</svg>
